<svg id="Layer_1" data-name="Layer 1" xmlns="http://www.w3.org/2000/svg" viewBox="0 0 242.22 172.31"><defs><style>.cls-1{fill:#f0f2f7;}</style></defs><title>m-white</title><path class="cls-1" d="M21.15,71.13V215.89a6.28,6.28,0,0,0,6.28,6.28H86.49a2.42,2.42,0,0,0,2-3.82L76.6,201.57V103.3l24.64-21.66v135a5.54,5.54,0,0,0,5.54,5.54h59.8a2.43,2.43,0,0,0,2-3.82L156.7,201.58v-97.3l26.55-23.34V215.58a5.89,5.89,0,0,0,5.89,5.88h59.45a2.42,2.42,0,0,0,2-3.82l-11.87-16.77v-145a6,6,0,0,0-6-6h-24L183.23,72.19,156.68,95.53V57.2A6.67,6.67,0,0,0,150,50.53H126.68L101.24,72.9,76.6,94.56V56a5.48,5.48,0,0,0-5.48-5.48H11.26a2.42,2.42,0,0,0-2,3.82Z" transform="translate(-8.81 -49.87)"/></svg>